<svg width="41" height="45" viewBox="0 0 41 45" fill="none" xmlns="http://www.w3.org/2000/svg">
<path d="M34.1857 40.4638L11.4611 44.8111C5.53295 45.9968 0 41.4519 0 35.3261V10.4278C0 4.30202 5.53295 -0.242906 11.4611 0.942727L34.1857 5.29005C37.7426 5.88286 40.1139 8.84695 40.1139 12.2062V33.35C40.1139 36.9069 37.545 39.871 34.1857 40.4638Z" fill="#FF5200"/>
<path d="M12.4491 31.5716V14.7751C12.4491 13.9847 13.2395 13.3919 14.0299 13.5895L30.8264 16.1584L30.6288 12.4039L14.6227 9.83499C11.4611 9.43978 8.69458 11.811 8.69458 14.9727V31.5716C8.69458 34.7333 11.4611 37.1046 14.6227 36.7093L30.8264 34.1405V30.386L13.8323 32.9548C13.2395 32.9548 12.4491 32.362 12.4491 31.5716Z" fill="white"/>
</svg>
