<svg width="45" height="45" viewBox="0 0 45 45" fill="none" xmlns="http://www.w3.org/2000/svg">
<rect width="45" height="45" rx="22.5" fill="#713A00"/>
<path d="M6.42871 18.4826C8.55071 18.4821 10.6727 18.483 12.7947 18.4821C13.6655 18.4839 14.534 18.7729 15.226 19.3026C15.9531 19.8504 16.4857 20.6515 16.7048 21.5357C16.9059 22.3343 16.8595 23.1947 16.5654 23.965C16.267 24.7608 15.7064 25.4533 14.995 25.9177C14.3324 26.3511 13.5389 26.5883 12.7464 26.5698C10.6405 26.5688 8.5346 26.5698 6.42871 26.5693C6.42871 23.8739 6.42871 21.1785 6.42871 18.4826ZM8.44448 20.5102C8.44448 21.8582 8.444 23.2061 8.44496 24.5541C9.88018 24.5535 11.3154 24.5531 12.7506 24.5541C13.0381 24.5545 13.3264 24.4986 13.5897 24.3819C14.2921 24.0797 14.7944 23.3531 14.8015 22.5848C14.829 21.9397 14.5117 21.297 13.9952 20.9133C13.6655 20.6634 13.2572 20.5135 12.8426 20.5097C11.3766 20.5106 9.91055 20.5097 8.44448 20.5102ZM17.956 18.5461C18.3302 18.4067 18.7604 18.5248 19.0413 18.8003C21.2487 20.403 23.4621 21.9976 25.6728 23.5964C25.6738 21.8918 25.6728 20.1872 25.6734 18.4826C26.3454 18.4826 27.017 18.4826 27.6891 18.4826C27.6896 20.7986 27.6882 23.1141 27.69 25.4301C27.6939 25.6682 27.6592 25.9186 27.5202 26.1187C27.2954 26.4716 26.8358 26.6471 26.4322 26.5404C26.2079 26.4968 26.0366 26.3407 25.864 26.2037C23.678 24.6228 21.4905 23.0439 19.3054 21.4621C19.3064 23.1644 19.3054 24.8666 19.3059 26.5693C18.6338 26.5693 17.9622 26.5693 17.2901 26.5693C17.2901 24.213 17.2901 21.8567 17.2901 19.4999C17.2811 19.0826 17.5619 18.6823 17.956 18.5461ZM30.1839 18.5399C30.5007 18.476 30.8261 18.4821 31.1482 18.4826C33.0933 18.483 35.0378 18.4816 36.9829 18.4835C37.2538 18.4807 37.5289 18.567 37.7267 18.7572C37.9804 18.9919 38.0933 19.3619 38.0236 19.6996C37.9405 20.1374 37.5322 20.4926 37.0839 20.4979C34.9952 20.4984 32.9064 20.4993 30.8171 20.4974C30.6065 20.4813 30.3698 20.5567 30.2641 20.7521C30.1422 20.9413 30.1758 21.2041 30.3333 21.3629C30.4514 21.501 30.642 21.5351 30.8152 21.5309C32.6166 21.5271 34.4184 21.5342 36.2193 21.5266C36.9701 21.5712 37.684 21.9781 38.1137 22.5938C38.4784 23.1089 38.6363 23.7658 38.5472 24.3899C38.458 25.0815 38.0629 25.7274 37.4867 26.1197C37.0787 26.4062 36.5832 26.5641 36.0851 26.5693C33.7753 26.5688 31.4659 26.5703 29.1566 26.5688C28.7818 26.5655 28.419 26.3298 28.2683 25.986C28.1107 25.6521 28.1587 25.2346 28.3863 24.9444C28.577 24.6921 28.891 24.5493 29.2054 24.5535C31.483 24.5541 33.7601 24.5531 36.0377 24.5541C36.3459 24.573 36.6158 24.2552 36.5494 23.9541C36.5062 23.7169 36.2824 23.5286 36.0405 23.5343C34.2372 23.5334 32.4335 23.5338 30.6302 23.5343C29.9761 23.5267 29.3344 23.2374 28.8824 22.7659C28.3176 22.1906 28.0657 21.3326 28.2199 20.5419C28.3925 19.5597 29.2045 18.7311 30.1839 18.5399Z" fill="#F08B21"/>
</svg>
