<svg width="999" height="196" viewBox="0 0 999 196" fill="none" xmlns="http://www.w3.org/2000/svg">
<rect x="70" width="929" height="196" rx="44" fill="white"/>
<g style="mix-blend-mode:difference">
<path d="M41.9545 146.273C35.1667 146.273 29.1212 145.106 23.8182 142.773C18.5455 140.409 14.3788 137.167 11.3182 133.045C8.28788 128.894 6.72727 124.106 6.63636 118.682H26.4545C26.5758 120.955 27.3182 122.955 28.6818 124.682C30.0758 126.379 31.9242 127.697 34.2273 128.636C36.5303 129.576 39.1212 130.045 42 130.045C45 130.045 47.6515 129.515 49.9545 128.455C52.2576 127.394 54.0606 125.924 55.3636 124.045C56.6667 122.167 57.3182 120 57.3182 117.545C57.3182 115.061 56.6212 112.864 55.2273 110.955C53.8636 109.015 51.8939 107.5 49.3182 106.409C46.7727 105.318 43.7424 104.773 40.2273 104.773H31.5455V90.3182H40.2273C43.197 90.3182 45.8182 89.803 48.0909 88.7727C50.3939 87.7424 52.1818 86.3182 53.4545 84.5C54.7273 82.6515 55.3636 80.5 55.3636 78.0455C55.3636 75.7121 54.803 73.6667 53.6818 71.9091C52.5909 70.1212 51.0455 68.7273 49.0455 67.7273C47.0758 66.7273 44.7727 66.2273 42.1364 66.2273C39.4697 66.2273 37.0303 66.7121 34.8182 67.6818C32.6061 68.6212 30.8333 69.9697 29.5 71.7273C28.1667 73.4848 27.4545 75.5455 27.3636 77.9091H8.5C8.59091 72.5455 10.1212 67.8182 13.0909 63.7273C16.0606 59.6364 20.0606 56.4394 25.0909 54.1364C30.1515 51.803 35.8636 50.6364 42.2273 50.6364C48.6515 50.6364 54.2727 51.803 59.0909 54.1364C63.9091 56.4697 67.6515 59.6212 70.3182 63.5909C73.0152 67.5303 74.3485 71.9545 74.3182 76.8636C74.3485 82.0758 72.7273 86.4242 69.4545 89.9091C66.2121 93.3939 61.9849 95.6061 56.7727 96.5455V97.2727C63.6212 98.1515 68.8333 100.53 72.4091 104.409C76.0152 108.258 77.803 113.076 77.7727 118.864C77.803 124.167 76.2727 128.879 73.1818 133C70.1212 137.121 65.8939 140.364 60.5 142.727C55.1061 145.091 48.9242 146.273 41.9545 146.273ZM112.011 146.318C107.557 146.318 103.587 145.545 100.102 144C96.6174 142.424 93.8598 140.106 91.8295 137.045C89.8295 133.955 88.8295 130.106 88.8295 125.5C88.8295 121.621 89.5417 118.364 90.9659 115.727C92.3902 113.091 94.3295 110.97 96.7841 109.364C99.2386 107.758 102.027 106.545 105.148 105.727C108.299 104.909 111.602 104.333 115.057 104C119.117 103.576 122.39 103.182 124.875 102.818C127.36 102.424 129.163 101.848 130.284 101.091C131.405 100.333 131.966 99.2121 131.966 97.7273V97.4545C131.966 94.5758 131.057 92.3485 129.239 90.7727C127.451 89.197 124.905 88.4091 121.602 88.4091C118.117 88.4091 115.345 89.1818 113.284 90.7273C111.223 92.2424 109.86 94.1515 109.193 96.4545L91.2841 95C92.1932 90.7576 93.9811 87.0909 96.6477 84C99.3144 80.8788 102.754 78.4848 106.966 76.8182C111.208 75.1212 116.117 74.2727 121.693 74.2727C125.572 74.2727 129.284 74.7273 132.83 75.6364C136.405 76.5455 139.572 77.9545 142.33 79.8636C145.117 81.7727 147.314 84.2273 148.92 87.2273C150.527 90.197 151.33 93.7576 151.33 97.9091V145H132.966V135.318H132.42C131.299 137.5 129.799 139.424 127.92 141.091C126.042 142.727 123.784 144.015 121.148 144.955C118.511 145.864 115.466 146.318 112.011 146.318ZM117.557 132.955C120.405 132.955 122.92 132.394 125.102 131.273C127.284 130.121 128.996 128.576 130.239 126.636C131.481 124.697 132.102 122.5 132.102 120.045V112.636C131.496 113.03 130.663 113.394 129.602 113.727C128.572 114.03 127.405 114.318 126.102 114.591C124.799 114.833 123.496 115.061 122.193 115.273C120.89 115.455 119.708 115.621 118.648 115.773C116.375 116.106 114.39 116.636 112.693 117.364C110.996 118.091 109.678 119.076 108.739 120.318C107.799 121.53 107.33 123.045 107.33 124.864C107.33 127.5 108.284 129.515 110.193 130.909C112.133 132.273 114.587 132.955 117.557 132.955ZM184.852 119.455L209.989 75.1818H229.08V145H210.625V100.591L185.58 145H166.352V75.1818H184.852V119.455ZM206.67 50.8182H220.17C220.14 56.3333 218.095 60.7727 214.034 64.1364C210.004 67.5 204.549 69.1818 197.67 69.1818C190.761 69.1818 185.292 67.5 181.261 64.1364C177.231 60.7727 175.216 56.3333 175.216 50.8182H188.625C188.595 52.9091 189.261 54.7879 190.625 56.4545C192.019 58.1212 194.367 58.9545 197.67 58.9545C200.883 58.9545 203.186 58.1364 204.58 56.5C205.973 54.8636 206.67 52.9697 206.67 50.8182ZM237.591 90.4091V75.1818H300.864V90.4091H278.364V145H259.909V90.4091H237.591ZM331.102 119.455L356.239 75.1818H375.33V145H356.875V100.591L331.83 145H312.602V75.1818H331.102V119.455ZM469.068 102.364V117.591H432.614V102.364H469.068ZM438.977 75.1818V145H420.477V75.1818H438.977ZM481.205 75.1818V145H462.841V75.1818H481.205ZM516.136 146.318C511.682 146.318 507.712 145.545 504.227 144C500.742 142.424 497.985 140.106 495.955 137.045C493.955 133.955 492.955 130.106 492.955 125.5C492.955 121.621 493.667 118.364 495.091 115.727C496.515 113.091 498.455 110.97 500.909 109.364C503.364 107.758 506.152 106.545 509.273 105.727C512.424 104.909 515.727 104.333 519.182 104C523.242 103.576 526.515 103.182 529 102.818C531.485 102.424 533.288 101.848 534.409 101.091C535.53 100.333 536.091 99.2121 536.091 97.7273V97.4545C536.091 94.5758 535.182 92.3485 533.364 90.7727C531.576 89.197 529.03 88.4091 525.727 88.4091C522.242 88.4091 519.47 89.1818 517.409 90.7273C515.348 92.2424 513.985 94.1515 513.318 96.4545L495.409 95C496.318 90.7576 498.106 87.0909 500.773 84C503.439 80.8788 506.879 78.4848 511.091 76.8182C515.333 75.1212 520.242 74.2727 525.818 74.2727C529.697 74.2727 533.409 74.7273 536.955 75.6364C540.53 76.5455 543.697 77.9545 546.455 79.8636C549.242 81.7727 551.439 84.2273 553.045 87.2273C554.652 90.197 555.455 93.7576 555.455 97.9091V145H537.091V135.318H536.545C535.424 137.5 533.924 139.424 532.045 141.091C530.167 142.727 527.909 144.015 525.273 144.955C522.636 145.864 519.591 146.318 516.136 146.318ZM521.682 132.955C524.53 132.955 527.045 132.394 529.227 131.273C531.409 130.121 533.121 128.576 534.364 126.636C535.606 124.697 536.227 122.5 536.227 120.045V112.636C535.621 113.03 534.788 113.394 533.727 113.727C532.697 114.03 531.53 114.318 530.227 114.591C528.924 114.833 527.621 115.061 526.318 115.273C525.015 115.455 523.833 115.621 522.773 115.773C520.5 116.106 518.515 116.636 516.818 117.364C515.121 118.091 513.803 119.076 512.864 120.318C511.924 121.53 511.455 123.045 511.455 124.864C511.455 127.5 512.409 129.515 514.318 130.909C516.258 132.273 518.712 132.955 521.682 132.955ZM631.648 146.364C624.496 146.364 618.345 144.848 613.193 141.818C608.072 138.758 604.133 134.515 601.375 129.091C598.648 123.667 597.284 117.424 597.284 110.364C597.284 103.212 598.663 96.9394 601.42 91.5455C604.208 86.1212 608.163 81.8939 613.284 78.8636C618.405 75.803 624.496 74.2727 631.557 74.2727C637.648 74.2727 642.981 75.3788 647.557 77.5909C652.133 79.803 655.754 82.9091 658.42 86.9091C661.087 90.9091 662.557 95.6061 662.83 101H644.557C644.042 97.5151 642.678 94.7121 640.466 92.5909C638.284 90.4394 635.42 89.3636 631.875 89.3636C628.875 89.3636 626.254 90.1818 624.011 91.8182C621.799 93.4242 620.072 95.7727 618.83 98.8636C617.587 101.955 616.966 105.697 616.966 110.091C616.966 114.545 617.572 118.333 618.784 121.455C620.027 124.576 621.769 126.955 624.011 128.591C626.254 130.227 628.875 131.045 631.875 131.045C634.087 131.045 636.072 130.591 637.83 129.682C639.617 128.773 641.087 127.455 642.239 125.727C643.42 123.97 644.193 121.864 644.557 119.409H662.83C662.527 124.742 661.072 129.439 658.466 133.5C655.89 137.53 652.33 140.682 647.784 142.955C643.239 145.227 637.86 146.364 631.648 146.364ZM695.136 146.318C690.682 146.318 686.712 145.545 683.227 144C679.742 142.424 676.985 140.106 674.955 137.045C672.955 133.955 671.955 130.106 671.955 125.5C671.955 121.621 672.667 118.364 674.091 115.727C675.515 113.091 677.455 110.97 679.909 109.364C682.364 107.758 685.152 106.545 688.273 105.727C691.424 104.909 694.727 104.333 698.182 104C702.242 103.576 705.515 103.182 708 102.818C710.485 102.424 712.288 101.848 713.409 101.091C714.53 100.333 715.091 99.2121 715.091 97.7273V97.4545C715.091 94.5758 714.182 92.3485 712.364 90.7727C710.576 89.197 708.03 88.4091 704.727 88.4091C701.242 88.4091 698.47 89.1818 696.409 90.7273C694.348 92.2424 692.985 94.1515 692.318 96.4545L674.409 95C675.318 90.7576 677.106 87.0909 679.773 84C682.439 80.8788 685.879 78.4848 690.091 76.8182C694.333 75.1212 699.242 74.2727 704.818 74.2727C708.697 74.2727 712.409 74.7273 715.955 75.6364C719.53 76.5455 722.697 77.9545 725.455 79.8636C728.242 81.7727 730.439 84.2273 732.045 87.2273C733.652 90.197 734.455 93.7576 734.455 97.9091V145H716.091V135.318H715.545C714.424 137.5 712.924 139.424 711.045 141.091C709.167 142.727 706.909 144.015 704.273 144.955C701.636 145.864 698.591 146.318 695.136 146.318ZM700.682 132.955C703.53 132.955 706.045 132.394 708.227 131.273C710.409 130.121 712.121 128.576 713.364 126.636C714.606 124.697 715.227 122.5 715.227 120.045V112.636C714.621 113.03 713.788 113.394 712.727 113.727C711.697 114.03 710.53 114.318 709.227 114.591C707.924 114.833 706.621 115.061 705.318 115.273C704.015 115.455 702.833 115.621 701.773 115.773C699.5 116.106 697.515 116.636 695.818 117.364C694.121 118.091 692.803 119.076 691.864 120.318C690.924 121.53 690.455 123.045 690.455 124.864C690.455 127.5 691.409 129.515 693.318 130.909C695.258 132.273 697.712 132.955 700.682 132.955ZM767.977 119.455L793.114 75.1818H812.205V145H793.75V100.591L768.705 145H749.477V75.1818H767.977V119.455ZM789.795 50.8182H803.295C803.265 56.3333 801.22 60.7727 797.159 64.1364C793.129 67.5 787.674 69.1818 780.795 69.1818C773.886 69.1818 768.417 67.5 764.386 64.1364C760.356 60.7727 758.341 56.3333 758.341 50.8182H771.75C771.72 52.9091 772.386 54.7879 773.75 56.4545C775.144 58.1212 777.492 58.9545 780.795 58.9545C784.008 58.9545 786.311 58.1364 787.705 56.5C789.098 54.8636 789.795 52.9697 789.795 50.8182ZM820.716 90.4091V75.1818H883.989V90.4091H861.489V145H843.034V90.4091H820.716Z" fill="white"/>
</g>
<path d="M954 98L919.5 117.919V78.0814L954 98Z" fill="black"/>
</svg>
