<svg width="45" height="45" viewBox="0 0 45 45" fill="none" xmlns="http://www.w3.org/2000/svg">
<rect width="45" height="45" rx="22.5" fill="#E51237"/>
<path d="M2.37319 25.1227C3.4992 25.1227 4.09132 23.9893 4.60819 22.4552H4.6915C4.48278 23.7807 4.54952 25.1227 5.79243 25.1227C6.90992 25.1227 7.44382 23.9808 7.91099 22.4552H7.99427C7.77751 23.7556 7.83572 25.1227 9.1118 25.1227C10.2293 25.1227 10.855 24.0058 11.0969 22.4637H10.313C10.2212 22.8052 10.0627 23.1387 9.77108 23.1387C9.16238 23.1387 9.49607 22.1217 9.76259 20.8464L10.1464 18.9958H8.26975C8.26975 18.9958 7.27721 23.1387 6.49338 23.1387C5.91785 23.1387 6.20135 22.0053 6.44322 20.8298L6.81857 18.9958H4.94189C4.59162 20.371 3.84946 23.1387 3.15701 23.1387C2.93172 23.1387 2.87349 22.9969 2.87349 22.8138C2.87349 22.6969 2.90663 22.572 2.94874 22.4637H1.23061C1.13879 22.8303 1.08862 23.1804 1.08862 23.5389C1.08862 24.4391 1.42231 25.1227 2.37319 25.1227ZM12.131 25.1227C12.6233 25.1227 13.0152 24.739 13.0152 24.2475C13.0152 23.756 12.6233 23.3724 12.131 23.3724C11.6388 23.3724 11.2469 23.756 11.2469 24.2475C11.2469 24.739 11.6388 25.1227 12.131 25.1227ZM17.2102 23.1307C17.2102 23.5474 16.9016 23.731 16.5599 23.731H15.359V22.5138H16.5684C16.9522 22.5138 17.2106 22.7471 17.2106 23.1307H17.2102ZM15.3586 20.2631H16.4595C16.7766 20.2631 17.0266 20.4381 17.0266 20.8048C17.0266 21.1714 16.7345 21.3464 16.4595 21.3464H15.3586V20.2627V20.2631ZM17.6854 21.8554C18.136 21.6804 18.5861 21.2801 18.5861 20.5219C18.5861 19.555 17.8606 18.9963 16.743 18.9963H13.8241V24.9978H16.7766C17.9107 24.9978 18.7698 24.4476 18.7698 23.3308C18.7698 22.5474 18.3026 22.0304 17.6854 21.8388V21.8554ZM41.9889 22.0053C41.9889 22.8554 41.4384 23.6222 40.4371 23.6222C39.4362 23.6222 38.844 22.8719 38.844 21.9883C38.844 21.1047 39.3945 20.3714 40.395 20.3714C41.3956 20.3714 41.9882 21.1217 41.9882 22.0053H41.9889ZM37.2849 21.9968C37.2849 23.8057 38.6527 25.1227 40.4208 25.1227C42.1885 25.1227 43.5483 23.7891 43.5483 21.9968C43.5483 20.2045 42.1809 18.871 40.4132 18.871C38.6451 18.871 37.2854 20.2045 37.2854 21.9968H37.2849ZM29.3782 20.4547V23.5389H27.5602C27.8186 22.9803 27.944 21.9051 27.944 20.5214V20.4547H29.3787H29.3782ZM30.9127 23.5389V18.9958H26.5009V19.4542C26.5009 21.5129 26.401 23.0716 25.9339 23.5385H25.3082V25.9472H26.8427V24.9969H30.2538V25.9472H31.7883V23.5385H30.9127V23.5389ZM33.9485 23.5389V22.6553H36.4675V21.2801H33.9485V20.4552H36.7009V18.9958H32.414V24.9973H36.7927V23.5385H33.9485V23.5389ZM23.2071 18.9958L21.0138 22.4051V18.9958H19.4793V24.9973H21.0138L23.2071 21.5881V24.9973H24.7416V18.9958H23.2071Z" fill="white"/>
</svg>
